<svg xmlns="http://www.w3.org/2000/svg" xmlns:xlink="http://www.w3.org/1999/xlink" width="485" zoomAndPan="magnify" viewBox="0 0 363.75 161.249994" height="215" preserveAspectRatio="xMidYMid meet" version="1.0"><defs><g/><clipPath id="fb4db91281"><path d="M 0.71875 0 L 98 0 L 98 160.503906 L 0.71875 160.503906 Z M 0.71875 0 " clip-rule="nonzero"/></clipPath></defs><path fill="#ff3131" d="M 101.222656 121.304688 C 100.40625 121.351562 99.589844 121.382812 98.765625 121.382812 C 76.042969 121.382812 57.625 102.964844 57.625 80.242188 C 57.625 57.523438 76.042969 39.105469 98.765625 39.105469 C 99.589844 39.105469 100.40625 39.136719 101.222656 39.183594 C 79.652344 40.464844 62.554688 58.351562 62.554688 80.242188 C 62.554688 102.132812 79.652344 120.023438 101.222656 121.304688 " fill-opacity="1" fill-rule="nonzero"/><path fill="#ffffff" d="M 132.78125 44.742188 C 124.097656 36.632812 112.445312 31.660156 99.628906 31.660156 C 73.234375 31.660156 51.753906 52.710938 51.066406 78.941406 C 51.054688 79.375 51.046875 79.808594 51.046875 80.242188 C 51.046875 107.074219 72.796875 128.824219 99.628906 128.824219 C 112.445312 128.824219 124.097656 123.855469 132.78125 115.746094 L 179.394531 115.746094 L 147.253906 121.226562 C 135.730469 134.605469 118.671875 143.074219 99.628906 143.074219 C 64.929688 143.074219 36.796875 114.945312 36.796875 80.242188 C 36.796875 45.542969 64.929688 17.410156 99.628906 17.410156 C 118.671875 17.410156 135.730469 25.882812 147.253906 39.257812 L 219.820312 44.742188 L 132.78125 44.742188 " fill-opacity="1" fill-rule="nonzero"/><path fill="#ff3131" d="M 145.050781 128.515625 C 140.34375 134.757812 134.746094 140.289062 128.449219 144.921875 C 128.261719 144.84375 128.074219 144.761719 127.890625 144.671875 L 122.910156 142.304688 C 131.078125 139.242188 138.613281 134.574219 145.050781 128.515625 " fill-opacity="1" fill-rule="nonzero"/><g clip-path="url(#fb4db91281)"><path fill="#ff3131" d="M 33.34375 80.242188 C 33.34375 116.171875 62.074219 145.515625 97.769531 146.503906 L 93.332031 158.988281 C 93.257812 159.1875 93.175781 159.378906 93.097656 159.570312 C 89.136719 160.171875 85.085938 160.484375 80.957031 160.484375 C 76.832031 160.484375 72.777344 160.171875 68.820312 159.570312 C 68.742188 159.378906 68.65625 159.1875 68.585938 158.988281 L 64.109375 146.394531 C 61.5 139.0625 53.125 135.59375 46.097656 138.933594 L 34.027344 144.671875 C 33.839844 144.761719 33.65625 144.84375 33.46875 144.921875 C 26.90625 140.097656 21.105469 134.296875 16.28125 127.734375 C 16.359375 127.546875 16.441406 127.359375 16.527344 127.175781 L 22.269531 115.105469 C 25.609375 108.074219 22.140625 99.703125 14.808594 97.09375 L 2.214844 92.617188 C 2.011719 92.542969 1.824219 92.460938 1.628906 92.382812 C 1.03125 88.421875 0.71875 84.371094 0.71875 80.242188 C 0.71875 76.117188 1.03125 72.066406 1.628906 68.105469 C 1.824219 68.027344 2.011719 67.941406 2.214844 67.871094 L 14.808594 63.394531 C 22.140625 60.785156 25.609375 52.410156 22.269531 45.382812 L 16.527344 33.3125 C 16.441406 33.125 16.359375 32.9375 16.28125 32.753906 C 21.105469 26.191406 26.90625 20.390625 33.46875 15.566406 C 33.65625 15.644531 33.839844 15.726562 34.027344 15.816406 L 46.097656 21.554688 C 53.125 24.894531 61.5 21.425781 64.109375 14.09375 L 68.585938 1.5 C 68.65625 1.296875 68.742188 1.109375 68.820312 0.914062 C 72.777344 0.316406 76.832031 0 80.957031 0 C 85.085938 0 89.136719 0.316406 93.097656 0.914062 C 93.175781 1.109375 93.257812 1.296875 93.332031 1.5 L 97.769531 13.984375 C 62.074219 14.972656 33.34375 44.3125 33.34375 80.242188 " fill-opacity="1" fill-rule="nonzero"/></g><path fill="#ff3131" d="M 122.910156 18.183594 L 127.890625 15.816406 C 128.074219 15.726562 128.261719 15.644531 128.449219 15.566406 C 134.746094 20.195312 140.339844 25.726562 145.046875 31.964844 C 138.609375 25.910156 131.074219 21.246094 122.910156 18.183594 " fill-opacity="1" fill-rule="nonzero"/><g fill="#ff3131" fill-opacity="1"><g transform="translate(76.679251, 100.056635)"><g><path d="M 37.203125 -0.625 C 27.984375 0.207031 20.335938 0.625 14.265625 0.625 C 10.210938 0.625 7.234375 -0.320312 5.328125 -2.21875 C 3.429688 -4.125 2.484375 -7.101562 2.484375 -11.15625 L 2.484375 -31 C 2.484375 -35.34375 3.460938 -38.492188 5.421875 -40.453125 C 7.390625 -42.421875 10.546875 -43.40625 14.890625 -43.40625 L 37.203125 -43.40625 L 37.203125 -34.734375 L 17.359375 -34.734375 C 14.878906 -34.734375 13.640625 -33.488281 13.640625 -31 L 13.640625 -11.15625 C 13.640625 -10.207031 13.914062 -9.453125 14.46875 -8.890625 C 15.03125 -8.335938 15.742188 -8.0625 16.609375 -8.0625 C 17.484375 -8.0625 18.4375 -8.070312 19.46875 -8.09375 C 20.5 -8.113281 21.570312 -8.144531 22.6875 -8.1875 C 23.8125 -8.226562 24.941406 -8.269531 26.078125 -8.3125 C 27.210938 -8.351562 28.675781 -8.4375 30.46875 -8.5625 C 32.269531 -8.6875 34.515625 -8.832031 37.203125 -9 Z M 37.203125 -0.625 "/></g></g></g><g fill="#ff3131" fill-opacity="1"><g transform="translate(115.125863, 100.056635)"><g><path d="M 31.625 -31.625 C 31.625 -34.101562 30.382812 -35.34375 27.90625 -35.34375 L 17.359375 -35.34375 C 14.878906 -35.34375 13.640625 -34.101562 13.640625 -31.625 L 13.640625 -11.78125 C 13.640625 -9.300781 14.878906 -8.0625 17.359375 -8.0625 L 27.90625 -8.0625 C 30.382812 -8.0625 31.625 -9.300781 31.625 -11.78125 Z M 42.796875 -11.78125 C 42.796875 -7.4375 41.8125 -4.28125 39.84375 -2.3125 C 37.882812 -0.351562 34.734375 0.625 30.390625 0.625 L 14.890625 0.625 C 10.546875 0.625 7.390625 -0.351562 5.421875 -2.3125 C 3.460938 -4.28125 2.484375 -7.4375 2.484375 -11.78125 L 2.484375 -31.625 C 2.484375 -35.96875 3.460938 -39.117188 5.421875 -41.078125 C 7.390625 -43.046875 10.546875 -44.03125 14.890625 -44.03125 L 30.390625 -44.03125 C 34.734375 -44.03125 37.882812 -43.046875 39.84375 -41.078125 C 41.8125 -39.117188 42.796875 -35.96875 42.796875 -31.625 Z M 42.796875 -11.78125 "/></g></g></g><g fill="#ff3131" fill-opacity="1"><g transform="translate(160.393644, 100.056635)"><g><path d="M 14.890625 -8.6875 L 37.515625 -8.6875 L 37.515625 0 L 3.71875 0 L 3.71875 -43.40625 L 14.890625 -43.40625 Z M 14.890625 -8.6875 "/></g></g></g><g fill="#ff3131" fill-opacity="1"><g transform="translate(198.530204, 100.056635)"><g><path d="M 11.46875 0 L -0.625 0 L 15.8125 -43.40625 L 28.21875 -43.40625 L 44.65625 0 L 32.5625 0 L 29.765625 -7.75 L 14.265625 -7.75 Z M 17.046875 -15.8125 L 26.984375 -15.8125 L 22.015625 -30.390625 Z M 17.046875 -15.8125 "/></g></g></g><g fill="#ff3131" fill-opacity="1"><g transform="translate(242.557757, 100.056635)"><g><path d="M 2.484375 0 Z M 37.203125 -0.625 C 27.984375 0.207031 20.335938 0.625 14.265625 0.625 C 10.210938 0.625 7.234375 -0.320312 5.328125 -2.21875 C 3.429688 -4.125 2.484375 -7.101562 2.484375 -11.15625 L 2.484375 -31 C 2.484375 -35.34375 3.460938 -38.492188 5.421875 -40.453125 C 7.390625 -42.421875 10.546875 -43.40625 14.890625 -43.40625 L 37.203125 -43.40625 L 37.203125 -34.734375 L 17.359375 -34.734375 C 14.878906 -34.734375 13.640625 -33.488281 13.640625 -31 L 13.640625 -11.15625 C 13.640625 -10.207031 13.914062 -9.453125 14.46875 -8.890625 C 15.03125 -8.335938 15.742188 -8.0625 16.609375 -8.0625 C 17.484375 -8.0625 18.4375 -8.070312 19.46875 -8.09375 C 20.5 -8.113281 21.570312 -8.144531 22.6875 -8.1875 C 23.8125 -8.226562 24.941406 -8.269531 26.078125 -8.3125 C 27.210938 -8.351562 28.675781 -8.4375 30.46875 -8.5625 C 32.269531 -8.6875 34.515625 -8.832031 37.203125 -9 Z M 22.328125 -1.234375 L 22.328125 1.234375 L 22.9375 1.234375 C 24.96875 1.234375 26.507812 1.726562 27.5625 2.71875 C 28.613281 3.71875 29.140625 5.085938 29.140625 6.828125 C 29.140625 8.554688 28.613281 9.914062 27.5625 10.90625 C 26.507812 11.90625 24.96875 12.40625 22.9375 12.40625 L 15.5 12.40625 L 15.5 8.375 L 21.703125 8.375 C 23.148438 8.375 23.875 7.859375 23.875 6.828125 C 23.875 5.785156 23.148438 5.265625 21.703125 5.265625 L 17.046875 5.265625 L 17.046875 -1.234375 Z M 22.328125 -1.234375 "/></g></g></g><g fill="#ff3131" fill-opacity="1"><g transform="translate(281.004369, 100.056635)"><g><path d="M 31.625 -31.625 C 31.625 -34.101562 30.382812 -35.34375 27.90625 -35.34375 L 17.359375 -35.34375 C 14.878906 -35.34375 13.640625 -34.101562 13.640625 -31.625 L 13.640625 -11.78125 C 13.640625 -9.300781 14.878906 -8.0625 17.359375 -8.0625 L 27.90625 -8.0625 C 30.382812 -8.0625 31.625 -9.300781 31.625 -11.78125 Z M 42.796875 -11.78125 C 42.796875 -7.4375 41.8125 -4.28125 39.84375 -2.3125 C 37.882812 -0.351562 34.734375 0.625 30.390625 0.625 L 14.890625 0.625 C 10.546875 0.625 7.390625 -0.351562 5.421875 -2.3125 C 3.460938 -4.28125 2.484375 -7.4375 2.484375 -11.78125 L 2.484375 -31.625 C 2.484375 -35.96875 3.460938 -39.117188 5.421875 -41.078125 C 7.390625 -43.046875 10.546875 -44.03125 14.890625 -44.03125 L 30.390625 -44.03125 C 34.734375 -44.03125 37.882812 -43.046875 39.84375 -41.078125 C 41.8125 -39.117188 42.796875 -35.96875 42.796875 -31.625 Z M 42.796875 -11.78125 "/></g></g></g><g fill="#ffffff" fill-opacity="1"><g transform="translate(235.719527, 125.432327)"><g><path d="M 4.734375 0.140625 C 3.929688 0.140625 3.203125 -0.0351562 2.546875 -0.390625 C 1.890625 -0.742188 1.375 -1.234375 1 -1.859375 C 0.625 -2.484375 0.4375 -3.1875 0.4375 -3.96875 C 0.4375 -4.757812 0.625 -5.460938 1 -6.078125 C 1.375 -6.703125 1.890625 -7.191406 2.546875 -7.546875 C 3.203125 -7.898438 3.9375 -8.078125 4.75 -8.078125 C 5.4375 -8.078125 6.054688 -7.953125 6.609375 -7.703125 C 7.171875 -7.460938 7.640625 -7.117188 8.015625 -6.671875 L 6.84375 -5.578125 C 6.300781 -6.203125 5.632812 -6.515625 4.84375 -6.515625 C 4.351562 -6.515625 3.914062 -6.40625 3.53125 -6.1875 C 3.144531 -5.96875 2.84375 -5.664062 2.625 -5.28125 C 2.40625 -4.894531 2.296875 -4.457031 2.296875 -3.96875 C 2.296875 -3.476562 2.40625 -3.039062 2.625 -2.65625 C 2.84375 -2.269531 3.144531 -1.96875 3.53125 -1.75 C 3.914062 -1.53125 4.351562 -1.421875 4.84375 -1.421875 C 5.632812 -1.421875 6.300781 -1.738281 6.84375 -2.375 L 8.015625 -1.28125 C 7.640625 -0.820312 7.171875 -0.46875 6.609375 -0.21875 C 6.054688 0.0195312 5.429688 0.140625 4.734375 0.140625 Z M 4.734375 0.140625 "/></g></g></g><g fill="#ffffff" fill-opacity="1"><g transform="translate(245.969275, 125.432327)"><g><path d="M 6.171875 -1.703125 L 2.484375 -1.703125 L 1.78125 0 L -0.109375 0 L 3.4375 -7.9375 L 5.25 -7.9375 L 8.796875 0 L 6.875 0 Z M 5.59375 -3.09375 L 4.328125 -6.140625 L 3.078125 -3.09375 Z M 5.59375 -3.09375 "/></g></g></g><g fill="#ffffff" fill-opacity="1"><g transform="translate(256.593178, 125.432327)"><g><path d="M 6.765625 -4.125 C 7.222656 -3.976562 7.578125 -3.738281 7.828125 -3.40625 C 8.085938 -3.070312 8.21875 -2.660156 8.21875 -2.171875 C 8.21875 -1.472656 7.945312 -0.9375 7.40625 -0.5625 C 6.875 -0.1875 6.085938 0 5.046875 0 L 0.9375 0 L 0.9375 -7.9375 L 4.828125 -7.9375 C 5.785156 -7.9375 6.523438 -7.75 7.046875 -7.375 C 7.566406 -7.007812 7.828125 -6.507812 7.828125 -5.875 C 7.828125 -5.488281 7.734375 -5.144531 7.546875 -4.84375 C 7.359375 -4.539062 7.097656 -4.300781 6.765625 -4.125 Z M 2.765625 -6.5625 L 2.765625 -4.6875 L 4.59375 -4.6875 C 5.050781 -4.6875 5.394531 -4.765625 5.625 -4.921875 C 5.863281 -5.078125 5.984375 -5.3125 5.984375 -5.625 C 5.984375 -5.9375 5.863281 -6.171875 5.625 -6.328125 C 5.394531 -6.484375 5.050781 -6.5625 4.59375 -6.5625 Z M 4.90625 -1.390625 C 5.394531 -1.390625 5.757812 -1.46875 6 -1.625 C 6.25 -1.78125 6.375 -2.023438 6.375 -2.359375 C 6.375 -3.015625 5.882812 -3.34375 4.90625 -3.34375 L 2.765625 -3.34375 L 2.765625 -1.390625 Z M 4.90625 -1.390625 "/></g></g></g><g fill="#ffffff" fill-opacity="1"><g transform="translate(267.205747, 125.432327)"><g><path d="M 7.09375 -1.46875 L 7.09375 0 L 0.9375 0 L 0.9375 -7.9375 L 6.9375 -7.9375 L 6.9375 -6.46875 L 2.765625 -6.46875 L 2.765625 -4.734375 L 6.453125 -4.734375 L 6.453125 -3.3125 L 2.765625 -3.3125 L 2.765625 -1.46875 Z M 7.09375 -1.46875 "/></g></g></g><g fill="#ffffff" fill-opacity="1"><g transform="translate(276.752529, 125.432327)"><g><path d="M 4.734375 0.140625 C 3.929688 0.140625 3.203125 -0.0351562 2.546875 -0.390625 C 1.890625 -0.742188 1.375 -1.234375 1 -1.859375 C 0.625 -2.484375 0.4375 -3.1875 0.4375 -3.96875 C 0.4375 -4.757812 0.625 -5.460938 1 -6.078125 C 1.375 -6.703125 1.890625 -7.191406 2.546875 -7.546875 C 3.203125 -7.898438 3.9375 -8.078125 4.75 -8.078125 C 5.4375 -8.078125 6.054688 -7.953125 6.609375 -7.703125 C 7.171875 -7.460938 7.640625 -7.117188 8.015625 -6.671875 L 6.84375 -5.578125 C 6.300781 -6.203125 5.632812 -6.515625 4.84375 -6.515625 C 4.351562 -6.515625 3.914062 -6.40625 3.53125 -6.1875 C 3.144531 -5.96875 2.84375 -5.664062 2.625 -5.28125 C 2.40625 -4.894531 2.296875 -4.457031 2.296875 -3.96875 C 2.296875 -3.476562 2.40625 -3.039062 2.625 -2.65625 C 2.84375 -2.269531 3.144531 -1.96875 3.53125 -1.75 C 3.914062 -1.53125 4.351562 -1.421875 4.84375 -1.421875 C 5.632812 -1.421875 6.300781 -1.738281 6.84375 -2.375 L 8.015625 -1.28125 C 7.640625 -0.820312 7.171875 -0.46875 6.609375 -0.21875 C 6.054688 0.0195312 5.429688 0.140625 4.734375 0.140625 Z M 4.125 2.625 C 3.925781 2.625 3.734375 2.601562 3.546875 2.5625 C 3.359375 2.519531 3.203125 2.460938 3.078125 2.390625 L 3.34375 1.640625 C 3.582031 1.742188 3.828125 1.796875 4.078125 1.796875 C 4.472656 1.796875 4.671875 1.675781 4.671875 1.4375 C 4.671875 1.21875 4.488281 1.109375 4.125 1.109375 L 3.734375 1.109375 L 4.03125 -0.09375 L 4.96875 -0.09375 L 4.8125 0.5625 C 5.144531 0.601562 5.390625 0.707031 5.546875 0.875 C 5.710938 1.050781 5.796875 1.265625 5.796875 1.515625 C 5.796875 1.859375 5.644531 2.128906 5.34375 2.328125 C 5.039062 2.523438 4.632812 2.625 4.125 2.625 Z M 4.125 2.625 "/></g></g></g><g fill="#ffffff" fill-opacity="1"><g transform="translate(287.002279, 125.432327)"><g><path d="M 4.78125 0.140625 C 3.957031 0.140625 3.210938 -0.0351562 2.546875 -0.390625 C 1.890625 -0.753906 1.375 -1.242188 1 -1.859375 C 0.625 -2.484375 0.4375 -3.1875 0.4375 -3.96875 C 0.4375 -4.75 0.625 -5.453125 1 -6.078125 C 1.375 -6.703125 1.890625 -7.191406 2.546875 -7.546875 C 3.210938 -7.898438 3.957031 -8.078125 4.78125 -8.078125 C 5.613281 -8.078125 6.359375 -7.898438 7.015625 -7.546875 C 7.671875 -7.191406 8.1875 -6.703125 8.5625 -6.078125 C 8.9375 -5.453125 9.125 -4.75 9.125 -3.96875 C 9.125 -3.1875 8.9375 -2.484375 8.5625 -1.859375 C 8.1875 -1.242188 7.671875 -0.753906 7.015625 -0.390625 C 6.359375 -0.0351562 5.613281 0.140625 4.78125 0.140625 Z M 4.78125 -1.421875 C 5.25 -1.421875 5.671875 -1.53125 6.046875 -1.75 C 6.429688 -1.96875 6.726562 -2.269531 6.9375 -2.65625 C 7.15625 -3.039062 7.265625 -3.476562 7.265625 -3.96875 C 7.265625 -4.457031 7.15625 -4.894531 6.9375 -5.28125 C 6.726562 -5.664062 6.429688 -5.96875 6.046875 -6.1875 C 5.671875 -6.40625 5.25 -6.515625 4.78125 -6.515625 C 4.3125 -6.515625 3.890625 -6.40625 3.515625 -6.1875 C 3.140625 -5.96875 2.84375 -5.664062 2.625 -5.28125 C 2.40625 -4.894531 2.296875 -4.457031 2.296875 -3.96875 C 2.296875 -3.476562 2.40625 -3.039062 2.625 -2.65625 C 2.84375 -2.269531 3.140625 -1.96875 3.515625 -1.75 C 3.890625 -1.53125 4.3125 -1.421875 4.78125 -1.421875 Z M 4.78125 -1.421875 "/></g></g></g><g fill="#ffffff" fill-opacity="1"><g transform="translate(298.510563, 125.432327)"><g><path d="M 2.59375 -6.4375 L 0.046875 -6.4375 L 0.046875 -7.9375 L 6.96875 -7.9375 L 6.96875 -6.4375 L 4.421875 -6.4375 L 4.421875 0 L 2.59375 0 Z M 2.59375 -6.4375 "/></g></g></g><g fill="#ffffff" fill-opacity="1"><g transform="translate(307.456407, 125.432327)"><g><path d="M 7.09375 -1.46875 L 7.09375 0 L 0.9375 0 L 0.9375 -7.9375 L 6.9375 -7.9375 L 6.9375 -6.46875 L 2.765625 -6.46875 L 2.765625 -4.734375 L 6.453125 -4.734375 L 6.453125 -3.3125 L 2.765625 -3.3125 L 2.765625 -1.46875 Z M 7.09375 -1.46875 "/></g></g></g><g fill="#ffffff" fill-opacity="1"><g transform="translate(317.003188, 125.432327)"><g><path d="M 3.546875 0.140625 C 2.921875 0.140625 2.3125 0.0546875 1.71875 -0.109375 C 1.132812 -0.285156 0.664062 -0.507812 0.3125 -0.78125 L 0.9375 -2.171875 C 1.28125 -1.921875 1.6875 -1.71875 2.15625 -1.5625 C 2.625 -1.414062 3.09375 -1.34375 3.5625 -1.34375 C 4.082031 -1.34375 4.46875 -1.414062 4.71875 -1.5625 C 4.96875 -1.71875 5.09375 -1.925781 5.09375 -2.1875 C 5.09375 -2.375 5.019531 -2.53125 4.875 -2.65625 C 4.726562 -2.78125 4.535156 -2.878906 4.296875 -2.953125 C 4.066406 -3.035156 3.757812 -3.117188 3.375 -3.203125 C 2.769531 -3.347656 2.269531 -3.492188 1.875 -3.640625 C 1.488281 -3.785156 1.15625 -4.015625 0.875 -4.328125 C 0.601562 -4.648438 0.46875 -5.078125 0.46875 -5.609375 C 0.46875 -6.066406 0.59375 -6.484375 0.84375 -6.859375 C 1.09375 -7.234375 1.46875 -7.53125 1.96875 -7.75 C 2.476562 -7.96875 3.097656 -8.078125 3.828125 -8.078125 C 4.328125 -8.078125 4.816406 -8.015625 5.296875 -7.890625 C 5.785156 -7.773438 6.210938 -7.601562 6.578125 -7.375 L 6.015625 -5.984375 C 5.273438 -6.398438 4.539062 -6.609375 3.8125 -6.609375 C 3.300781 -6.609375 2.921875 -6.523438 2.671875 -6.359375 C 2.421875 -6.191406 2.296875 -5.96875 2.296875 -5.6875 C 2.296875 -5.414062 2.4375 -5.210938 2.71875 -5.078125 C 3.007812 -4.953125 3.445312 -4.828125 4.03125 -4.703125 C 4.632812 -4.554688 5.128906 -4.410156 5.515625 -4.265625 C 5.898438 -4.117188 6.226562 -3.890625 6.5 -3.578125 C 6.78125 -3.273438 6.921875 -2.859375 6.921875 -2.328125 C 6.921875 -1.867188 6.789062 -1.453125 6.53125 -1.078125 C 6.28125 -0.703125 5.898438 -0.40625 5.390625 -0.1875 C 4.890625 0.03125 4.273438 0.140625 3.546875 0.140625 Z M 3.546875 0.140625 "/></g></g></g></svg>