<svg xmlns="http://www.w3.org/2000/svg" xmlns:xlink="http://www.w3.org/1999/xlink" width="485" zoomAndPan="magnify" viewBox="0 0 363.75 161.249994" height="215" preserveAspectRatio="xMidYMid meet" version="1.0"><defs><g/><clipPath id="6bd6b9f16c"><path d="M 55 17 L 238.933594 17 L 238.933594 144 L 55 144 Z M 55 17 " clip-rule="nonzero"/></clipPath><clipPath id="07c16c3aa9"><path d="M 19.457031 0 L 117 0 L 117 160.503906 L 19.457031 160.503906 Z M 19.457031 0 " clip-rule="nonzero"/></clipPath></defs><path fill="#ff3131" d="M 119.960938 121.304688 C 119.144531 121.351562 118.328125 121.382812 117.503906 121.382812 C 94.78125 121.382812 76.363281 102.964844 76.363281 80.242188 C 76.363281 57.523438 94.78125 39.105469 117.503906 39.105469 C 118.328125 39.105469 119.144531 39.136719 119.960938 39.183594 C 98.390625 40.464844 81.292969 58.351562 81.292969 80.242188 C 81.292969 102.132812 98.390625 120.023438 119.960938 121.304688 " fill-opacity="1" fill-rule="nonzero"/><g clip-path="url(#6bd6b9f16c)"><path fill="#000000" d="M 151.519531 44.742188 C 142.835938 36.632812 131.183594 31.660156 118.367188 31.660156 C 91.972656 31.660156 70.496094 52.710938 69.804688 78.941406 C 69.792969 79.375 69.785156 79.808594 69.785156 80.242188 C 69.785156 107.074219 91.535156 128.824219 118.367188 128.824219 C 131.183594 128.824219 142.835938 123.855469 151.519531 115.746094 L 198.132812 115.746094 L 165.992188 121.226562 C 154.46875 134.605469 137.410156 143.074219 118.367188 143.074219 C 83.667969 143.074219 55.535156 114.945312 55.535156 80.242188 C 55.535156 45.542969 83.667969 17.410156 118.367188 17.410156 C 137.410156 17.410156 154.46875 25.882812 165.992188 39.257812 L 238.5625 44.742188 L 151.519531 44.742188 " fill-opacity="1" fill-rule="nonzero"/></g><path fill="#ff3131" d="M 163.789062 128.515625 C 159.082031 134.757812 153.484375 140.289062 147.1875 144.921875 C 147 144.84375 146.8125 144.761719 146.628906 144.671875 L 141.648438 142.304688 C 149.816406 139.242188 157.351562 134.574219 163.789062 128.515625 " fill-opacity="1" fill-rule="nonzero"/><g clip-path="url(#07c16c3aa9)"><path fill="#ff3131" d="M 52.082031 80.242188 C 52.082031 116.171875 80.8125 145.515625 116.507812 146.503906 L 112.070312 158.988281 C 112 159.1875 111.914062 159.378906 111.835938 159.570312 C 107.875 160.171875 103.824219 160.484375 99.695312 160.484375 C 95.570312 160.484375 91.515625 160.171875 87.558594 159.570312 C 87.480469 159.378906 87.394531 159.1875 87.324219 158.988281 L 82.847656 146.394531 C 80.238281 139.0625 71.863281 135.59375 64.835938 138.933594 L 52.765625 144.671875 C 52.578125 144.761719 52.394531 144.84375 52.207031 144.921875 C 45.644531 140.097656 39.84375 134.296875 35.019531 127.734375 C 35.097656 127.546875 35.179688 127.359375 35.269531 127.175781 L 41.007812 115.105469 C 44.347656 108.074219 40.878906 99.703125 33.546875 97.09375 L 20.953125 92.617188 C 20.753906 92.542969 20.5625 92.460938 20.371094 92.382812 C 19.769531 88.421875 19.457031 84.371094 19.457031 80.242188 C 19.457031 76.117188 19.769531 72.066406 20.371094 68.105469 C 20.5625 68.027344 20.753906 67.941406 20.953125 67.871094 L 33.546875 63.394531 C 40.878906 60.785156 44.347656 52.410156 41.007812 45.382812 L 35.269531 33.3125 C 35.179688 33.125 35.097656 32.9375 35.019531 32.753906 C 39.84375 26.191406 45.644531 20.390625 52.207031 15.566406 C 52.394531 15.644531 52.578125 15.726562 52.765625 15.816406 L 64.835938 21.554688 C 71.863281 24.894531 80.238281 21.425781 82.847656 14.09375 L 87.324219 1.5 C 87.394531 1.296875 87.480469 1.109375 87.558594 0.914062 C 91.515625 0.316406 95.570312 0 99.695312 0 C 103.824219 0 107.875 0.316406 111.835938 0.914062 C 111.914062 1.109375 112 1.296875 112.070312 1.5 L 116.507812 13.984375 C 80.8125 14.972656 52.082031 44.3125 52.082031 80.242188 " fill-opacity="1" fill-rule="nonzero"/></g><path fill="#ff3131" d="M 141.648438 18.183594 L 146.628906 15.816406 C 146.8125 15.726562 147 15.644531 147.1875 15.566406 C 153.484375 20.195312 159.078125 25.726562 163.785156 31.964844 C 157.347656 25.910156 149.8125 21.246094 141.648438 18.183594 " fill-opacity="1" fill-rule="nonzero"/><g fill="#ff3131" fill-opacity="1"><g transform="translate(95.417827, 100.056635)"><g><path d="M 37.203125 -0.625 C 27.984375 0.207031 20.335938 0.625 14.265625 0.625 C 10.210938 0.625 7.234375 -0.320312 5.328125 -2.21875 C 3.429688 -4.125 2.484375 -7.101562 2.484375 -11.15625 L 2.484375 -31 C 2.484375 -35.34375 3.460938 -38.492188 5.421875 -40.453125 C 7.390625 -42.421875 10.546875 -43.40625 14.890625 -43.40625 L 37.203125 -43.40625 L 37.203125 -34.734375 L 17.359375 -34.734375 C 14.878906 -34.734375 13.640625 -33.488281 13.640625 -31 L 13.640625 -11.15625 C 13.640625 -10.207031 13.914062 -9.453125 14.46875 -8.890625 C 15.03125 -8.335938 15.742188 -8.0625 16.609375 -8.0625 C 17.484375 -8.0625 18.4375 -8.070312 19.46875 -8.09375 C 20.5 -8.113281 21.570312 -8.144531 22.6875 -8.1875 C 23.8125 -8.226562 24.941406 -8.269531 26.078125 -8.3125 C 27.210938 -8.351562 28.675781 -8.4375 30.46875 -8.5625 C 32.269531 -8.6875 34.515625 -8.832031 37.203125 -9 Z M 37.203125 -0.625 "/></g></g></g><g fill="#ff3131" fill-opacity="1"><g transform="translate(133.864439, 100.056635)"><g><path d="M 31.625 -31.625 C 31.625 -34.101562 30.382812 -35.34375 27.90625 -35.34375 L 17.359375 -35.34375 C 14.878906 -35.34375 13.640625 -34.101562 13.640625 -31.625 L 13.640625 -11.78125 C 13.640625 -9.300781 14.878906 -8.0625 17.359375 -8.0625 L 27.90625 -8.0625 C 30.382812 -8.0625 31.625 -9.300781 31.625 -11.78125 Z M 42.796875 -11.78125 C 42.796875 -7.4375 41.8125 -4.28125 39.84375 -2.3125 C 37.882812 -0.351562 34.734375 0.625 30.390625 0.625 L 14.890625 0.625 C 10.546875 0.625 7.390625 -0.351562 5.421875 -2.3125 C 3.460938 -4.28125 2.484375 -7.4375 2.484375 -11.78125 L 2.484375 -31.625 C 2.484375 -35.96875 3.460938 -39.117188 5.421875 -41.078125 C 7.390625 -43.046875 10.546875 -44.03125 14.890625 -44.03125 L 30.390625 -44.03125 C 34.734375 -44.03125 37.882812 -43.046875 39.84375 -41.078125 C 41.8125 -39.117188 42.796875 -35.96875 42.796875 -31.625 Z M 42.796875 -11.78125 "/></g></g></g><g fill="#ff3131" fill-opacity="1"><g transform="translate(179.13222, 100.056635)"><g><path d="M 14.890625 -8.6875 L 37.515625 -8.6875 L 37.515625 0 L 3.71875 0 L 3.71875 -43.40625 L 14.890625 -43.40625 Z M 14.890625 -8.6875 "/></g></g></g><g fill="#ff3131" fill-opacity="1"><g transform="translate(217.268781, 100.056635)"><g><path d="M 11.46875 0 L -0.625 0 L 15.8125 -43.40625 L 28.21875 -43.40625 L 44.65625 0 L 32.5625 0 L 29.765625 -7.75 L 14.265625 -7.75 Z M 17.046875 -15.8125 L 26.984375 -15.8125 L 22.015625 -30.390625 Z M 17.046875 -15.8125 "/></g></g></g><g fill="#ff3131" fill-opacity="1"><g transform="translate(261.296334, 100.056635)"><g><path d="M 2.484375 0 Z M 37.203125 -0.625 C 27.984375 0.207031 20.335938 0.625 14.265625 0.625 C 10.210938 0.625 7.234375 -0.320312 5.328125 -2.21875 C 3.429688 -4.125 2.484375 -7.101562 2.484375 -11.15625 L 2.484375 -31 C 2.484375 -35.34375 3.460938 -38.492188 5.421875 -40.453125 C 7.390625 -42.421875 10.546875 -43.40625 14.890625 -43.40625 L 37.203125 -43.40625 L 37.203125 -34.734375 L 17.359375 -34.734375 C 14.878906 -34.734375 13.640625 -33.488281 13.640625 -31 L 13.640625 -11.15625 C 13.640625 -10.207031 13.914062 -9.453125 14.46875 -8.890625 C 15.03125 -8.335938 15.742188 -8.0625 16.609375 -8.0625 C 17.484375 -8.0625 18.4375 -8.070312 19.46875 -8.09375 C 20.5 -8.113281 21.570312 -8.144531 22.6875 -8.1875 C 23.8125 -8.226562 24.941406 -8.269531 26.078125 -8.3125 C 27.210938 -8.351562 28.675781 -8.4375 30.46875 -8.5625 C 32.269531 -8.6875 34.515625 -8.832031 37.203125 -9 Z M 22.328125 -1.234375 L 22.328125 1.234375 L 22.9375 1.234375 C 24.96875 1.234375 26.507812 1.726562 27.5625 2.71875 C 28.613281 3.71875 29.140625 5.085938 29.140625 6.828125 C 29.140625 8.554688 28.613281 9.914062 27.5625 10.90625 C 26.507812 11.90625 24.96875 12.40625 22.9375 12.40625 L 15.5 12.40625 L 15.5 8.375 L 21.703125 8.375 C 23.148438 8.375 23.875 7.859375 23.875 6.828125 C 23.875 5.785156 23.148438 5.265625 21.703125 5.265625 L 17.046875 5.265625 L 17.046875 -1.234375 Z M 22.328125 -1.234375 "/></g></g></g><g fill="#ff3131" fill-opacity="1"><g transform="translate(299.742946, 100.056635)"><g><path d="M 31.625 -31.625 C 31.625 -34.101562 30.382812 -35.34375 27.90625 -35.34375 L 17.359375 -35.34375 C 14.878906 -35.34375 13.640625 -34.101562 13.640625 -31.625 L 13.640625 -11.78125 C 13.640625 -9.300781 14.878906 -8.0625 17.359375 -8.0625 L 27.90625 -8.0625 C 30.382812 -8.0625 31.625 -9.300781 31.625 -11.78125 Z M 42.796875 -11.78125 C 42.796875 -7.4375 41.8125 -4.28125 39.84375 -2.3125 C 37.882812 -0.351562 34.734375 0.625 30.390625 0.625 L 14.890625 0.625 C 10.546875 0.625 7.390625 -0.351562 5.421875 -2.3125 C 3.460938 -4.28125 2.484375 -7.4375 2.484375 -11.78125 L 2.484375 -31.625 C 2.484375 -35.96875 3.460938 -39.117188 5.421875 -41.078125 C 7.390625 -43.046875 10.546875 -44.03125 14.890625 -44.03125 L 30.390625 -44.03125 C 34.734375 -44.03125 37.882812 -43.046875 39.84375 -41.078125 C 41.8125 -39.117188 42.796875 -35.96875 42.796875 -31.625 Z M 42.796875 -11.78125 "/></g></g></g><g fill="#000000" fill-opacity="1"><g transform="translate(254.458104, 125.432327)"><g><path d="M 4.734375 0.140625 C 3.929688 0.140625 3.203125 -0.0351562 2.546875 -0.390625 C 1.890625 -0.742188 1.375 -1.234375 1 -1.859375 C 0.625 -2.484375 0.4375 -3.1875 0.4375 -3.96875 C 0.4375 -4.757812 0.625 -5.460938 1 -6.078125 C 1.375 -6.703125 1.890625 -7.191406 2.546875 -7.546875 C 3.203125 -7.898438 3.9375 -8.078125 4.75 -8.078125 C 5.4375 -8.078125 6.054688 -7.953125 6.609375 -7.703125 C 7.171875 -7.460938 7.640625 -7.117188 8.015625 -6.671875 L 6.84375 -5.578125 C 6.300781 -6.203125 5.632812 -6.515625 4.84375 -6.515625 C 4.351562 -6.515625 3.914062 -6.40625 3.53125 -6.1875 C 3.144531 -5.96875 2.84375 -5.664062 2.625 -5.28125 C 2.40625 -4.894531 2.296875 -4.457031 2.296875 -3.96875 C 2.296875 -3.476562 2.40625 -3.039062 2.625 -2.65625 C 2.84375 -2.269531 3.144531 -1.96875 3.53125 -1.75 C 3.914062 -1.53125 4.351562 -1.421875 4.84375 -1.421875 C 5.632812 -1.421875 6.300781 -1.738281 6.84375 -2.375 L 8.015625 -1.28125 C 7.640625 -0.820312 7.171875 -0.46875 6.609375 -0.21875 C 6.054688 0.0195312 5.429688 0.140625 4.734375 0.140625 Z M 4.734375 0.140625 "/></g></g></g><g fill="#000000" fill-opacity="1"><g transform="translate(264.707852, 125.432327)"><g><path d="M 6.171875 -1.703125 L 2.484375 -1.703125 L 1.78125 0 L -0.109375 0 L 3.4375 -7.9375 L 5.25 -7.9375 L 8.796875 0 L 6.875 0 Z M 5.59375 -3.09375 L 4.328125 -6.140625 L 3.078125 -3.09375 Z M 5.59375 -3.09375 "/></g></g></g><g fill="#000000" fill-opacity="1"><g transform="translate(275.331755, 125.432327)"><g><path d="M 6.765625 -4.125 C 7.222656 -3.976562 7.578125 -3.738281 7.828125 -3.40625 C 8.085938 -3.070312 8.21875 -2.660156 8.21875 -2.171875 C 8.21875 -1.472656 7.945312 -0.9375 7.40625 -0.5625 C 6.875 -0.1875 6.085938 0 5.046875 0 L 0.9375 0 L 0.9375 -7.9375 L 4.828125 -7.9375 C 5.785156 -7.9375 6.523438 -7.75 7.046875 -7.375 C 7.566406 -7.007812 7.828125 -6.507812 7.828125 -5.875 C 7.828125 -5.488281 7.734375 -5.144531 7.546875 -4.84375 C 7.359375 -4.539062 7.097656 -4.300781 6.765625 -4.125 Z M 2.765625 -6.5625 L 2.765625 -4.6875 L 4.59375 -4.6875 C 5.050781 -4.6875 5.394531 -4.765625 5.625 -4.921875 C 5.863281 -5.078125 5.984375 -5.3125 5.984375 -5.625 C 5.984375 -5.9375 5.863281 -6.171875 5.625 -6.328125 C 5.394531 -6.484375 5.050781 -6.5625 4.59375 -6.5625 Z M 4.90625 -1.390625 C 5.394531 -1.390625 5.757812 -1.46875 6 -1.625 C 6.25 -1.78125 6.375 -2.023438 6.375 -2.359375 C 6.375 -3.015625 5.882812 -3.34375 4.90625 -3.34375 L 2.765625 -3.34375 L 2.765625 -1.390625 Z M 4.90625 -1.390625 "/></g></g></g><g fill="#000000" fill-opacity="1"><g transform="translate(285.944324, 125.432327)"><g><path d="M 7.09375 -1.46875 L 7.09375 0 L 0.9375 0 L 0.9375 -7.9375 L 6.9375 -7.9375 L 6.9375 -6.46875 L 2.765625 -6.46875 L 2.765625 -4.734375 L 6.453125 -4.734375 L 6.453125 -3.3125 L 2.765625 -3.3125 L 2.765625 -1.46875 Z M 7.09375 -1.46875 "/></g></g></g><g fill="#000000" fill-opacity="1"><g transform="translate(295.491106, 125.432327)"><g><path d="M 4.734375 0.140625 C 3.929688 0.140625 3.203125 -0.0351562 2.546875 -0.390625 C 1.890625 -0.742188 1.375 -1.234375 1 -1.859375 C 0.625 -2.484375 0.4375 -3.1875 0.4375 -3.96875 C 0.4375 -4.757812 0.625 -5.460938 1 -6.078125 C 1.375 -6.703125 1.890625 -7.191406 2.546875 -7.546875 C 3.203125 -7.898438 3.9375 -8.078125 4.75 -8.078125 C 5.4375 -8.078125 6.054688 -7.953125 6.609375 -7.703125 C 7.171875 -7.460938 7.640625 -7.117188 8.015625 -6.671875 L 6.84375 -5.578125 C 6.300781 -6.203125 5.632812 -6.515625 4.84375 -6.515625 C 4.351562 -6.515625 3.914062 -6.40625 3.53125 -6.1875 C 3.144531 -5.96875 2.84375 -5.664062 2.625 -5.28125 C 2.40625 -4.894531 2.296875 -4.457031 2.296875 -3.96875 C 2.296875 -3.476562 2.40625 -3.039062 2.625 -2.65625 C 2.84375 -2.269531 3.144531 -1.96875 3.53125 -1.75 C 3.914062 -1.53125 4.351562 -1.421875 4.84375 -1.421875 C 5.632812 -1.421875 6.300781 -1.738281 6.84375 -2.375 L 8.015625 -1.28125 C 7.640625 -0.820312 7.171875 -0.46875 6.609375 -0.21875 C 6.054688 0.0195312 5.429688 0.140625 4.734375 0.140625 Z M 4.125 2.625 C 3.925781 2.625 3.734375 2.601562 3.546875 2.5625 C 3.359375 2.519531 3.203125 2.460938 3.078125 2.390625 L 3.34375 1.640625 C 3.582031 1.742188 3.828125 1.796875 4.078125 1.796875 C 4.472656 1.796875 4.671875 1.675781 4.671875 1.4375 C 4.671875 1.21875 4.488281 1.109375 4.125 1.109375 L 3.734375 1.109375 L 4.03125 -0.09375 L 4.96875 -0.09375 L 4.8125 0.5625 C 5.144531 0.601562 5.390625 0.707031 5.546875 0.875 C 5.710938 1.050781 5.796875 1.265625 5.796875 1.515625 C 5.796875 1.859375 5.644531 2.128906 5.34375 2.328125 C 5.039062 2.523438 4.632812 2.625 4.125 2.625 Z M 4.125 2.625 "/></g></g></g><g fill="#000000" fill-opacity="1"><g transform="translate(305.740855, 125.432327)"><g><path d="M 4.78125 0.140625 C 3.957031 0.140625 3.210938 -0.0351562 2.546875 -0.390625 C 1.890625 -0.753906 1.375 -1.242188 1 -1.859375 C 0.625 -2.484375 0.4375 -3.1875 0.4375 -3.96875 C 0.4375 -4.75 0.625 -5.453125 1 -6.078125 C 1.375 -6.703125 1.890625 -7.191406 2.546875 -7.546875 C 3.210938 -7.898438 3.957031 -8.078125 4.78125 -8.078125 C 5.613281 -8.078125 6.359375 -7.898438 7.015625 -7.546875 C 7.671875 -7.191406 8.1875 -6.703125 8.5625 -6.078125 C 8.9375 -5.453125 9.125 -4.75 9.125 -3.96875 C 9.125 -3.1875 8.9375 -2.484375 8.5625 -1.859375 C 8.1875 -1.242188 7.671875 -0.753906 7.015625 -0.390625 C 6.359375 -0.0351562 5.613281 0.140625 4.78125 0.140625 Z M 4.78125 -1.421875 C 5.25 -1.421875 5.671875 -1.53125 6.046875 -1.75 C 6.429688 -1.96875 6.726562 -2.269531 6.9375 -2.65625 C 7.15625 -3.039062 7.265625 -3.476562 7.265625 -3.96875 C 7.265625 -4.457031 7.15625 -4.894531 6.9375 -5.28125 C 6.726562 -5.664062 6.429688 -5.96875 6.046875 -6.1875 C 5.671875 -6.40625 5.25 -6.515625 4.78125 -6.515625 C 4.3125 -6.515625 3.890625 -6.40625 3.515625 -6.1875 C 3.140625 -5.96875 2.84375 -5.664062 2.625 -5.28125 C 2.40625 -4.894531 2.296875 -4.457031 2.296875 -3.96875 C 2.296875 -3.476562 2.40625 -3.039062 2.625 -2.65625 C 2.84375 -2.269531 3.140625 -1.96875 3.515625 -1.75 C 3.890625 -1.53125 4.3125 -1.421875 4.78125 -1.421875 Z M 4.78125 -1.421875 "/></g></g></g><g fill="#000000" fill-opacity="1"><g transform="translate(317.24914, 125.432327)"><g><path d="M 2.59375 -6.4375 L 0.046875 -6.4375 L 0.046875 -7.9375 L 6.96875 -7.9375 L 6.96875 -6.4375 L 4.421875 -6.4375 L 4.421875 0 L 2.59375 0 Z M 2.59375 -6.4375 "/></g></g></g><g fill="#000000" fill-opacity="1"><g transform="translate(326.194984, 125.432327)"><g><path d="M 7.09375 -1.46875 L 7.09375 0 L 0.9375 0 L 0.9375 -7.9375 L 6.9375 -7.9375 L 6.9375 -6.46875 L 2.765625 -6.46875 L 2.765625 -4.734375 L 6.453125 -4.734375 L 6.453125 -3.3125 L 2.765625 -3.3125 L 2.765625 -1.46875 Z M 7.09375 -1.46875 "/></g></g></g><g fill="#000000" fill-opacity="1"><g transform="translate(335.741765, 125.432327)"><g><path d="M 3.546875 0.140625 C 2.921875 0.140625 2.3125 0.0546875 1.71875 -0.109375 C 1.132812 -0.285156 0.664062 -0.507812 0.3125 -0.78125 L 0.9375 -2.171875 C 1.28125 -1.921875 1.6875 -1.71875 2.15625 -1.5625 C 2.625 -1.414062 3.09375 -1.34375 3.5625 -1.34375 C 4.082031 -1.34375 4.46875 -1.414062 4.71875 -1.5625 C 4.96875 -1.71875 5.09375 -1.925781 5.09375 -2.1875 C 5.09375 -2.375 5.019531 -2.53125 4.875 -2.65625 C 4.726562 -2.78125 4.535156 -2.878906 4.296875 -2.953125 C 4.066406 -3.035156 3.757812 -3.117188 3.375 -3.203125 C 2.769531 -3.347656 2.269531 -3.492188 1.875 -3.640625 C 1.488281 -3.785156 1.15625 -4.015625 0.875 -4.328125 C 0.601562 -4.648438 0.46875 -5.078125 0.46875 -5.609375 C 0.46875 -6.066406 0.59375 -6.484375 0.84375 -6.859375 C 1.09375 -7.234375 1.46875 -7.53125 1.96875 -7.75 C 2.476562 -7.96875 3.097656 -8.078125 3.828125 -8.078125 C 4.328125 -8.078125 4.816406 -8.015625 5.296875 -7.890625 C 5.785156 -7.773438 6.210938 -7.601562 6.578125 -7.375 L 6.015625 -5.984375 C 5.273438 -6.398438 4.539062 -6.609375 3.8125 -6.609375 C 3.300781 -6.609375 2.921875 -6.523438 2.671875 -6.359375 C 2.421875 -6.191406 2.296875 -5.96875 2.296875 -5.6875 C 2.296875 -5.414062 2.4375 -5.210938 2.71875 -5.078125 C 3.007812 -4.953125 3.445312 -4.828125 4.03125 -4.703125 C 4.632812 -4.554688 5.128906 -4.410156 5.515625 -4.265625 C 5.898438 -4.117188 6.226562 -3.890625 6.5 -3.578125 C 6.78125 -3.273438 6.921875 -2.859375 6.921875 -2.328125 C 6.921875 -1.867188 6.789062 -1.453125 6.53125 -1.078125 C 6.28125 -0.703125 5.898438 -0.40625 5.390625 -0.1875 C 4.890625 0.03125 4.273438 0.140625 3.546875 0.140625 Z M 3.546875 0.140625 "/></g></g></g></svg>